<svg width="11" height="11" viewBox="0 0 11 11" fill="none" xmlns="http://www.w3.org/2000/svg">
<g clip-path="url(#clip0_73_66)">
<path d="M5.5 8.7085C5.59065 8.7085 5.67927 8.68162 5.75464 8.63125C5.83001 8.58089 5.88876 8.50931 5.92345 8.42556C5.95814 8.34181 5.96722 8.24965 5.94953 8.16075C5.93185 8.07184 5.88819 7.99017 5.8241 7.92607C5.76 7.86197 5.67833 7.81832 5.58942 7.80064C5.50051 7.78295 5.40836 7.79203 5.32461 7.82672C5.24086 7.86141 5.16928 7.92015 5.11891 7.99553C5.06855 8.0709 5.04167 8.15951 5.04167 8.25016C5.04167 8.37172 5.08996 8.4883 5.17591 8.57425C5.26187 8.66021 5.37845 8.7085 5.5 8.7085ZM7.79167 8.7085C7.88232 8.7085 7.97094 8.68162 8.04631 8.63125C8.12168 8.58089 8.18043 8.50931 8.21512 8.42556C8.24981 8.34181 8.25888 8.24965 8.2412 8.16075C8.22351 8.07184 8.17986 7.99017 8.11576 7.92607C8.05166 7.86197 7.97 7.81832 7.88109 7.80064C7.79218 7.78295 7.70002 7.79203 7.61628 7.82672C7.53253 7.86141 7.46094 7.92015 7.41058 7.99553C7.36022 8.0709 7.33334 8.15951 7.33334 8.25016C7.33334 8.37172 7.38163 8.4883 7.46758 8.57425C7.55353 8.66021 7.67011 8.7085 7.79167 8.7085ZM7.79167 6.87516C7.88232 6.87516 7.97094 6.84828 8.04631 6.79792C8.12168 6.74756 8.18043 6.67598 8.21512 6.59223C8.24981 6.50848 8.25888 6.41632 8.2412 6.32741C8.22351 6.23851 8.17986 6.15684 8.11576 6.09274C8.05166 6.02864 7.97 5.98499 7.88109 5.9673C7.79218 5.94962 7.70002 5.95869 7.61628 5.99339C7.53253 6.02808 7.46094 6.08682 7.41058 6.16219C7.36022 6.23757 7.33334 6.32618 7.33334 6.41683C7.33334 6.53839 7.38163 6.65497 7.46758 6.74092C7.55353 6.82687 7.67011 6.87516 7.79167 6.87516ZM5.5 6.87516C5.59065 6.87516 5.67927 6.84828 5.75464 6.79792C5.83001 6.74756 5.88876 6.67598 5.92345 6.59223C5.95814 6.50848 5.96722 6.41632 5.94953 6.32741C5.93185 6.23851 5.88819 6.15684 5.8241 6.09274C5.76 6.02864 5.67833 5.98499 5.58942 5.9673C5.50051 5.94962 5.40836 5.95869 5.32461 5.99339C5.24086 6.02808 5.16928 6.08682 5.11891 6.16219C5.06855 6.23757 5.04167 6.32618 5.04167 6.41683C5.04167 6.53839 5.08996 6.65497 5.17591 6.74092C5.26187 6.82687 5.37845 6.87516 5.5 6.87516ZM8.70834 1.37516H8.25V0.916829C8.25 0.795272 8.20172 0.678693 8.11576 0.592739C8.02981 0.506785 7.91323 0.458496 7.79167 0.458496C7.67011 0.458496 7.55353 0.506785 7.46758 0.592739C7.38163 0.678693 7.33334 0.795272 7.33334 0.916829V1.37516H3.66667V0.916829C3.66667 0.795272 3.61838 0.678693 3.53243 0.592739C3.44647 0.506785 3.3299 0.458496 3.20834 0.458496C3.08678 0.458496 2.9702 0.506785 2.88425 0.592739C2.79829 0.678693 2.75001 0.795272 2.75001 0.916829V1.37516H2.29167C1.927 1.37516 1.57726 1.52003 1.3194 1.77789C1.06154 2.03575 0.916672 2.38549 0.916672 2.75016V9.16683C0.916672 9.5315 1.06154 9.88124 1.3194 10.1391C1.57726 10.397 1.927 10.5418 2.29167 10.5418H8.70834C9.07301 10.5418 9.42275 10.397 9.68061 10.1391C9.93847 9.88124 10.0833 9.5315 10.0833 9.16683V2.75016C10.0833 2.38549 9.93847 2.03575 9.68061 1.77789C9.42275 1.52003 9.07301 1.37516 8.70834 1.37516ZM9.16667 9.16683C9.16667 9.28839 9.11838 9.40497 9.03243 9.49092C8.94648 9.57688 8.8299 9.62516 8.70834 9.62516H2.29167C2.17011 9.62516 2.05354 9.57688 1.96758 9.49092C1.88163 9.40497 1.83334 9.28839 1.83334 9.16683V5.04183H9.16667V9.16683ZM9.16667 4.12516H1.83334V2.75016C1.83334 2.62861 1.88163 2.51203 1.96758 2.42607C2.05354 2.34012 2.17011 2.29183 2.29167 2.29183H2.75001V2.75016C2.75001 2.87172 2.79829 2.9883 2.88425 3.07425C2.9702 3.16021 3.08678 3.2085 3.20834 3.2085C3.3299 3.2085 3.44647 3.16021 3.53243 3.07425C3.61838 2.9883 3.66667 2.87172 3.66667 2.75016V2.29183H7.33334V2.75016C7.33334 2.87172 7.38163 2.9883 7.46758 3.07425C7.55353 3.16021 7.67011 3.2085 7.79167 3.2085C7.91323 3.2085 8.02981 3.16021 8.11576 3.07425C8.20172 2.9883 8.25 2.87172 8.25 2.75016V2.29183H8.70834C8.8299 2.29183 8.94648 2.34012 9.03243 2.42607C9.11838 2.51203 9.16667 2.62861 9.16667 2.75016V4.12516ZM3.20834 6.87516C3.29899 6.87516 3.3876 6.84828 3.46297 6.79792C3.53835 6.74756 3.59709 6.67598 3.63178 6.59223C3.66647 6.50848 3.67555 6.41632 3.65787 6.32741C3.64018 6.23851 3.59653 6.15684 3.53243 6.09274C3.46833 6.02864 3.38666 5.98499 3.29775 5.9673C3.20885 5.94962 3.11669 5.95869 3.03294 5.99339C2.94919 6.02808 2.87761 6.08682 2.82725 6.16219C2.77689 6.23757 2.75001 6.32618 2.75001 6.41683C2.75001 6.53839 2.79829 6.65497 2.88425 6.74092C2.9702 6.82687 3.08678 6.87516 3.20834 6.87516ZM3.20834 8.7085C3.29899 8.7085 3.3876 8.68162 3.46297 8.63125C3.53835 8.58089 3.59709 8.50931 3.63178 8.42556C3.66647 8.34181 3.67555 8.24965 3.65787 8.16075C3.64018 8.07184 3.59653 7.99017 3.53243 7.92607C3.46833 7.86197 3.38666 7.81832 3.29775 7.80064C3.20885 7.78295 3.11669 7.79203 3.03294 7.82672C2.94919 7.86141 2.87761 7.92015 2.82725 7.99553C2.77689 8.0709 2.75001 8.15951 2.75001 8.25016C2.75001 8.37172 2.79829 8.4883 2.88425 8.57425C2.9702 8.66021 3.08678 8.7085 3.20834 8.7085Z" fill="#FFA454"/>
</g>
<defs>
<clipPath id="clip0_73_66">
<rect width="11" height="11" fill="white"/>
</clipPath>
</defs>
</svg>
