<svg width="17" height="17" viewBox="0 0 17 17" fill="none" xmlns="http://www.w3.org/2000/svg">
<path d="M14.28 3.26545C13.528 2.5132 12.5309 2.05585 11.4702 1.97655C10.4095 1.89726 9.35552 2.20129 8.5 2.83336C7.59876 2.16302 6.477 1.85906 5.36061 1.98268C4.24423 2.10631 3.21615 2.64833 2.4834 3.49961C1.75065 4.35089 1.36767 5.44819 1.41157 6.57054C1.45547 7.69289 1.923 8.75692 2.72 9.54836L7.99709 14.8254C8.06293 14.8918 8.14128 14.9445 8.22759 14.9805C8.31391 15.0165 8.40649 15.035 8.5 15.035C8.59351 15.035 8.68609 15.0165 8.77241 14.9805C8.85873 14.9445 8.93707 14.8918 9.00292 14.8254L14.28 9.54836C14.6927 9.13592 15.0201 8.64619 15.2435 8.10716C15.4669 7.56814 15.5818 6.99038 15.5818 6.40691C15.5818 5.82343 15.4669 5.24567 15.2435 4.70665C15.0201 4.16762 14.6927 3.67789 14.28 3.26545ZM13.2813 8.54961L8.5 13.3238L3.71875 8.54961C3.29742 8.12653 3.0104 7.58844 2.89371 7.00285C2.77701 6.41727 2.83584 5.81026 3.0628 5.25798C3.28977 4.7057 3.67476 4.23274 4.1695 3.89843C4.66423 3.56412 5.24667 3.38334 5.84375 3.37878C6.64142 3.38073 7.4057 3.69919 7.96875 4.2642C8.0346 4.33059 8.11294 4.38328 8.19926 4.41925C8.28558 4.45521 8.37816 4.47372 8.47167 4.47372C8.56518 4.47372 8.65776 4.45521 8.74408 4.41925C8.83039 4.38328 8.90874 4.33059 8.97459 4.2642C9.55423 3.76191 10.3031 3.49859 11.0695 3.52755C11.836 3.5565 12.5628 3.87557 13.1029 4.42016C13.643 4.96476 13.956 5.69421 13.9786 6.46087C14.0012 7.22754 13.7317 7.97416 13.2246 8.54961H13.2813Z" fill="url(#paint0_linear_29_97)"/>
<defs>
<linearGradient id="paint0_linear_29_97" x1="1.40817" y1="1.95569" x2="14.4453" y2="16.0837" gradientUnits="userSpaceOnUse">
<stop stop-color="#1389FF"/>
<stop offset="1" stop-color="#1DB4E7"/>
</linearGradient>
</defs>
</svg>
