<svg width="15" height="15" viewBox="0 0 15 15" fill="none" xmlns="http://www.w3.org/2000/svg">
<path d="M13.28 2.26545C12.528 1.5132 11.5309 1.05585 10.4702 0.976551C9.40948 0.897256 8.35552 1.20129 7.5 1.83336C6.59876 1.16302 5.477 0.85906 4.36061 0.982682C3.24423 1.10631 2.21615 1.64833 1.4834 2.49961C0.750652 3.35089 0.367668 4.44819 0.411569 5.57054C0.455471 6.69289 0.922998 7.75692 1.72 8.54836L6.99709 13.8254C7.06293 13.8918 7.14128 13.9445 7.22759 13.9805C7.31391 14.0165 7.40649 14.035 7.5 14.035C7.59351 14.035 7.68609 14.0165 7.77241 13.9805C7.85873 13.9445 7.93707 13.8918 8.00292 13.8254L13.28 8.54836C13.6927 8.13592 14.0201 7.64619 14.2435 7.10716C14.4669 6.56814 14.5818 5.99038 14.5818 5.40691C14.5818 4.82343 14.4669 4.24567 14.2435 3.70665C14.0201 3.16762 13.6927 2.67789 13.28 2.26545ZM12.2813 7.54961L7.5 12.3238L2.71875 7.54961C2.29742 7.12653 2.0104 6.58844 1.89371 6.00285C1.77701 5.41727 1.83584 4.81026 2.0628 4.25798C2.28977 3.7057 2.67476 3.23274 3.1695 2.89843C3.66423 2.56412 4.24667 2.38334 4.84375 2.37878C5.64142 2.38073 6.4057 2.69919 6.96875 3.2642C7.0346 3.33059 7.11294 3.38328 7.19926 3.41925C7.28558 3.45521 7.37816 3.47372 7.47167 3.47372C7.56518 3.47372 7.65776 3.45521 7.74408 3.41925C7.83039 3.38328 7.90874 3.33059 7.97459 3.2642C8.55423 2.76191 9.30306 2.49859 10.0695 2.52755C10.836 2.5565 11.5628 2.87557 12.1029 3.42016C12.643 3.96476 12.956 4.69421 12.9786 5.46087C13.0012 6.22754 12.7317 6.97416 12.2246 7.54961H12.2813Z" fill="#2F1AC4"/>
</svg>
