<svg width="15" height="15" viewBox="0 0 15 15" fill="none" xmlns="http://www.w3.org/2000/svg">
<path d="M0.979172 1.36462C0.979172 1.20715 1.04173 1.05613 1.15308 0.944779C1.26443 0.83343 1.41545 0.770874 1.57292 0.770874H2.01467C2.76676 0.770874 3.218 1.27675 3.4753 1.747C3.64709 2.0605 3.77138 2.42387 3.86876 2.75321C3.89509 2.75113 3.9215 2.75007 3.94792 2.75004H13.8422C14.4993 2.75004 14.9743 3.37862 14.7938 4.01117L13.3466 9.08496C13.2168 9.54005 12.9423 9.94047 12.5646 10.2256C12.187 10.5107 11.7266 10.665 11.2534 10.6651H6.54459C6.0676 10.6651 5.60381 10.5085 5.2245 10.2193C4.84519 9.93011 4.57136 9.52434 4.44509 9.06437L3.84342 6.86987L2.84592 3.50687L2.84513 3.50054C2.72163 3.05167 2.60605 2.63129 2.43346 2.31779C2.268 2.013 2.135 1.95837 2.01546 1.95837H1.57292C1.41545 1.95837 1.26443 1.89582 1.15308 1.78447C1.04173 1.67312 0.979172 1.5221 0.979172 1.36462ZM4.9953 6.58171L5.58984 8.75008C5.70859 9.17917 6.09888 9.47762 6.54459 9.47762H11.2534C11.4685 9.47762 11.6778 9.40753 11.8495 9.27797C12.0212 9.14841 12.146 8.96643 12.205 8.75958L13.5801 3.93754H4.21313L4.98421 6.53975L4.9953 6.58171Z" fill="#2F1AC4"/>
<path d="M7.70834 13.0417C7.70834 13.4616 7.54152 13.8644 7.24459 14.1613C6.94766 14.4582 6.54493 14.625 6.12501 14.625C5.70508 14.625 5.30235 14.4582 5.00542 14.1613C4.70849 13.8644 4.54167 13.4616 4.54167 13.0417C4.54167 12.6218 4.70849 12.2191 5.00542 11.9221C5.30235 11.6252 5.70508 11.4584 6.12501 11.4584C6.54493 11.4584 6.94766 11.6252 7.24459 11.9221C7.54152 12.2191 7.70834 12.6218 7.70834 13.0417ZM6.52084 13.0417C6.52084 12.9367 6.47913 12.836 6.4049 12.7618C6.33067 12.6876 6.22999 12.6459 6.12501 12.6459C6.02002 12.6459 5.91934 12.6876 5.84511 12.7618C5.77088 12.836 5.72917 12.9367 5.72917 13.0417C5.72917 13.1467 5.77088 13.2474 5.84511 13.3216C5.91934 13.3958 6.02002 13.4375 6.12501 13.4375C6.22999 13.4375 6.33067 13.3958 6.4049 13.3216C6.47913 13.2474 6.52084 13.1467 6.52084 13.0417Z" fill="#2F1AC4"/>
<path d="M13.25 13.0417C13.25 13.4616 13.0832 13.8644 12.7863 14.1613C12.4893 14.4582 12.0866 14.625 11.6667 14.625C11.2468 14.625 10.844 14.4582 10.5471 14.1613C10.2502 13.8644 10.0833 13.4616 10.0833 13.0417C10.0833 12.6218 10.2502 12.2191 10.5471 11.9221C10.844 11.6252 11.2468 11.4584 11.6667 11.4584C12.0866 11.4584 12.4893 11.6252 12.7863 11.9221C13.0832 12.2191 13.25 12.6218 13.25 13.0417ZM12.0625 13.0417C12.0625 12.9367 12.0208 12.836 11.9466 12.7618C11.8723 12.6876 11.7717 12.6459 11.6667 12.6459C11.5617 12.6459 11.461 12.6876 11.3868 12.7618C11.3125 12.836 11.2708 12.9367 11.2708 13.0417C11.2708 13.1467 11.3125 13.2474 11.3868 13.3216C11.461 13.3958 11.5617 13.4375 11.6667 13.4375C11.7717 13.4375 11.8723 13.3958 11.9466 13.3216C12.0208 13.2474 12.0625 13.1467 12.0625 13.0417Z" fill="#2F1AC4"/>
</svg>
