<svg width="65" height="65" viewBox="0 0 65 65" fill="none" xmlns="http://www.w3.org/2000/svg">
<g clip-path="url(#clip0_1_458)">
<path d="M15.9447 36.5388L8.10397 58.772L15.9925 58.6952L25.7211 36.5388H15.9447Z" fill="#80AAFF"/>
<path d="M25.7207 36.5388L19.5985 59.934L25.7644 65.0004L32.4997 45.2938V36.5388H25.7207Z" fill="#80AAFF"/>
<path d="M23.5919 36.5388L15.9928 58.6952L18.0671 58.6751L19.5992 59.934L27.6232 36.5388H23.5919Z" fill="#EAF1FF"/>
<path d="M49.056 36.5388L56.8967 58.772L49.0082 58.6952L39.2796 36.5388H49.056Z" fill="#6680FF"/>
<path d="M39.2795 36.5388L45.4017 59.934L39.2358 65.0004L32.5005 45.2938V36.5388H39.2795Z" fill="#6680FF"/>
<path d="M41.4086 36.5388L49.0077 58.6952L46.9334 58.6751L45.4013 59.934L37.3773 36.5388H41.4086Z" fill="#B3CCFF"/>
<path d="M32.4993 1.90625L31.1435 23.0483L32.4993 43.3854C43.9535 43.3854 53.2389 34.1 53.2389 22.6459C53.2389 11.1917 43.9535 1.90625 32.4993 1.90625Z" fill="#EAF1FF"/>
<path d="M11.7598 22.6459C11.7598 34.1 21.0452 43.3854 32.4994 43.3854V1.90625C21.0452 1.90625 11.7598 11.1917 11.7598 22.6459Z" fill="#F9F9F9"/>
<path d="M55.1455 22.6462C55.1455 10.159 44.9864 0 32.4993 0L31.1434 1.35585L32.4993 3.8132C42.8838 3.8132 51.3323 12.2616 51.3323 22.6462C51.3323 33.0307 42.8838 41.4791 32.4993 41.4791L31.1434 43.3857L32.4993 45.2923C44.9864 45.2923 55.1455 35.1333 55.1455 22.6462Z" fill="#FDAE02"/>
<path d="M32.4997 41.4791C22.1152 41.4791 13.6668 33.0307 13.6668 22.6462C13.6668 12.2616 22.1152 3.8132 32.4997 3.8132V0C20.0126 0 9.85355 10.159 9.85355 22.6462C9.85355 35.1333 20.0126 45.2923 32.4997 45.2923V41.4791Z" fill="#FDCB02"/>
<path d="M43.8975 15.0948L37.9611 17.0358L32.5002 12.4163L31.1445 21.6926L32.5002 31.268H43.8975V15.0948Z" fill="#FD9002"/>
<path d="M32.5002 12.4163L27.0395 17.0358L21.1031 15.0948V31.268H32.5002V12.4163Z" fill="#FDAE02"/>
</g>
<defs>
<clipPath id="clip0_1_458">
<rect width="65" height="65" fill="white"/>
</clipPath>
</defs>
</svg>
